<svg width="19" height="24" viewBox="0 0 19 24" fill="none" xmlns="http://www.w3.org/2000/svg">
<path d="M7.7625 0.248177C8.19844 1.3263 8.35781 2.30599 8.21719 3.07474C8.09063 3.79661 7.8375 4.33568 7.03125 5.6013C5.88281 7.40599 5.44219 8.54505 5.26875 10.1247C5.24063 10.3966 5.20781 10.6263 5.19844 10.6357C5.18906 10.6451 5.05781 10.5794 4.90781 10.4951C4.3125 10.1622 3.76875 9.74974 3.28125 9.27161C2.81719 8.81224 2.76562 8.77474 2.70469 8.84974C2.52656 9.07943 1.87969 10.0591 1.66406 10.4247C0.857813 11.7982 0.304688 13.256 0.084375 14.606C-0.028125 15.2951 -0.028125 16.5372 0.084375 17.1794C0.248437 18.1122 0.69375 19.2185 1.22344 20.0013C2.55469 21.9794 5.01094 23.4466 7.70625 23.8826C8.33906 23.981 8.39531 23.9669 7.94063 23.8169C5.47969 23.0107 4.41563 20.6857 5.02031 17.4607C5.05781 17.2544 5.1 17.0716 5.10938 17.0529C5.12344 17.0294 5.2125 17.1138 5.31094 17.2404C5.74219 17.7841 6.12656 17.9997 6.375 17.8404C6.52031 17.7419 6.51094 17.7747 6.57656 17.0154C6.72656 15.206 7.36406 13.7576 8.5125 12.6044C8.7375 12.3794 9.12188 12.0607 9.37969 11.8919C9.8625 11.5732 10.3594 11.306 10.4016 11.3482C10.4156 11.3622 10.3688 11.531 10.2984 11.7232C10.1953 12.0185 10.1016 12.1685 10.1016 12.6044C10.0969 13.2326 10.2281 13.3826 10.7766 14.2497C11.3859 15.2201 11.6438 15.8622 11.7188 16.6216C11.7375 16.7857 11.7703 16.9216 11.7984 16.9216C11.8969 16.9216 12.6188 16.4013 12.8297 16.181L13.0453 15.9466L13.2047 16.1622C14.1563 17.4888 14.6156 18.9091 14.4938 20.156C14.3438 21.731 13.2703 23.006 11.4844 23.7279C11.1703 23.8544 11.1609 23.8591 11.3625 23.831C11.7469 23.7794 12.6422 23.531 13.0734 23.3576C17.025 21.7919 18.8438 17.8122 18.0609 12.4497C17.9438 11.6388 17.775 10.781 17.7375 10.781C17.7188 10.781 17.5922 10.9357 17.4516 11.1185C17.3156 11.306 17.0484 11.6107 16.8656 11.7935C16.1719 12.4826 15.6328 12.6232 15.2203 12.2247C15.0703 12.0794 15.0656 12.0607 15.0656 11.7232C15.0656 11.231 14.9859 10.3544 14.8734 9.62318C14.4422 6.75911 13.1672 4.19974 11.2641 2.36693C10.2375 1.37786 8.95781 0.510677 7.90781 0.098177L7.65938 -0.000259399L7.7625 0.248177Z" fill="url(#paint0_linear_4155_21542)"/>
<defs>
<linearGradient id="paint0_linear_4155_21542" x1="2.27477e-07" y1="22.7128" x2="19.9197" y2="20.7147" gradientUnits="userSpaceOnUse">
<stop stop-color="#F7D357"/>
<stop offset="1" stop-color="#E09528"/>
</linearGradient>
</defs>
</svg>
