<svg width="219" height="203" viewBox="0 0 219 203" fill="none" xmlns="http://www.w3.org/2000/svg">
<g filter="url(#filter0_i_3847_21031)">
<circle cx="110" cy="93" r="93" fill="url(#paint0_linear_3847_21031)"/>
</g>
<circle cx="110" cy="93" r="91.45" stroke="#5C3232" stroke-width="3.1"/>
<circle cx="53" cy="82" r="8" fill="#5C3232"/>
<circle cx="167" cy="80" r="8" fill="#5C3232"/>
<path d="M87.4365 141.907C84.3211 140.237 83.1056 136.303 85.361 133.581C87.6663 130.8 90.4361 128.416 93.5623 126.545C98.5282 123.571 104.208 122.001 109.995 122C115.783 121.999 121.463 123.568 126.43 126.54C129.557 128.411 132.327 130.793 134.633 133.574C136.889 136.295 135.675 140.23 132.56 141.9C129.445 143.571 125.617 142.285 123.02 139.889C122.054 138.998 120.995 138.204 119.858 137.524C116.878 135.741 113.47 134.8 109.997 134.8C106.525 134.8 103.117 135.743 100.137 137.527C99.0003 138.207 97.9419 139.001 96.9765 139.892C94.3793 142.29 90.5518 143.576 87.4365 141.907Z" fill="#5C3232"/>
<path d="M32.3002 75.7342C31.2121 76.0093 30.0665 75.5904 29.4126 74.6782C28.2708 73.0856 29.1294 70.8443 31.0431 70.4222L37.4466 69.0097C40.2743 68.386 42.7227 66.6307 44.2212 64.1529L47.6146 58.5418C48.6287 56.8649 51.027 56.7713 52.1688 58.3639C52.8227 59.276 52.8517 60.4955 52.2418 61.4376L49.9044 65.0487C46.803 69.84 42.0038 73.2806 36.4705 74.6797L32.3002 75.7342Z" fill="#5C3232"/>
<path d="M167.244 61.4141C166.643 60.466 166.684 59.2469 167.346 58.3412C168.504 56.7597 170.901 56.8766 171.899 58.5632L175.237 64.207C176.712 66.6992 179.143 68.4782 181.965 69.1293L188.354 70.6038C190.264 71.0444 191.1 73.2939 189.943 74.8754C189.281 75.7812 188.131 76.189 187.046 75.9033L182.886 74.8085C177.366 73.3558 172.601 69.8688 169.546 65.0476L167.244 61.4141Z" fill="#5C3232"/>
<circle cx="216" cy="30" r="3" fill="#D9D9D9"/>
<circle cx="216" cy="30" r="3" fill="url(#paint1_linear_3847_21031)"/>
<circle cx="39" cy="192" r="6" fill="#D9D9D9"/>
<circle cx="39" cy="192" r="6" fill="url(#paint2_linear_3847_21031)"/>
<circle cx="8" cy="18" r="8" fill="#D9D9D9"/>
<circle cx="8" cy="18" r="8" fill="url(#paint3_linear_3847_21031)"/>
<circle cx="199" cy="195" r="8" fill="#D9D9D9"/>
<circle cx="199" cy="195" r="8" fill="url(#paint4_linear_3847_21031)"/>
<circle cx="201" cy="141" r="2" fill="url(#paint5_linear_3847_21031)"/>
<circle cx="29" cy="174" r="2" fill="#D9D9D9"/>
<circle cx="29" cy="174" r="2" fill="url(#paint6_linear_3847_21031)"/>
<circle cx="56" cy="184" r="2" fill="#D9D9D9"/>
<circle cx="56" cy="184" r="2" fill="url(#paint7_linear_3847_21031)"/>
<defs>
<filter id="filter0_i_3847_21031" x="17" y="-10" width="186" height="196" filterUnits="userSpaceOnUse" color-interpolation-filters="sRGB">
<feFlood flood-opacity="0" result="BackgroundImageFix"/>
<feBlend mode="normal" in="SourceGraphic" in2="BackgroundImageFix" result="shape"/>
<feColorMatrix in="SourceAlpha" type="matrix" values="0 0 0 0 0 0 0 0 0 0 0 0 0 0 0 0 0 0 127 0" result="hardAlpha"/>
<feOffset dy="-16"/>
<feGaussianBlur stdDeviation="5"/>
<feComposite in2="hardAlpha" operator="arithmetic" k2="-1" k3="1"/>
<feColorMatrix type="matrix" values="0 0 0 0 0.729167 0 0 0 0 0.230903 0 0 0 0 0.230903 0 0 0 0.6 0"/>
<feBlend mode="normal" in2="shape" result="effect1_innerShadow_3847_21031"/>
</filter>
<linearGradient id="paint0_linear_3847_21031" x1="110" y1="4.5" x2="110" y2="176.5" gradientUnits="userSpaceOnUse">
<stop stop-color="#FFB9B9"/>
<stop offset="1" stop-color="#FF9292"/>
</linearGradient>
<linearGradient id="paint1_linear_3847_21031" x1="216" y1="27.1452" x2="216" y2="32.6935" gradientUnits="userSpaceOnUse">
<stop stop-color="#FFB9B9"/>
<stop offset="1" stop-color="#FF9292"/>
</linearGradient>
<linearGradient id="paint2_linear_3847_21031" x1="39" y1="186.29" x2="39" y2="197.387" gradientUnits="userSpaceOnUse">
<stop stop-color="#FFB9B9"/>
<stop offset="1" stop-color="#FF9292"/>
</linearGradient>
<linearGradient id="paint3_linear_3847_21031" x1="8" y1="10.3871" x2="8" y2="25.1828" gradientUnits="userSpaceOnUse">
<stop stop-color="#FFB9B9"/>
<stop offset="1" stop-color="#FF9292"/>
</linearGradient>
<linearGradient id="paint4_linear_3847_21031" x1="199" y1="187.387" x2="199" y2="202.183" gradientUnits="userSpaceOnUse">
<stop stop-color="#FFB9B9"/>
<stop offset="1" stop-color="#FF9292"/>
</linearGradient>
<linearGradient id="paint5_linear_3847_21031" x1="201" y1="139.097" x2="201" y2="142.796" gradientUnits="userSpaceOnUse">
<stop stop-color="#FFB9B9"/>
<stop offset="1" stop-color="#FF9292"/>
</linearGradient>
<linearGradient id="paint6_linear_3847_21031" x1="29" y1="172.097" x2="29" y2="175.796" gradientUnits="userSpaceOnUse">
<stop stop-color="#FFB9B9"/>
<stop offset="1" stop-color="#FF9292"/>
</linearGradient>
<linearGradient id="paint7_linear_3847_21031" x1="56" y1="182.097" x2="56" y2="185.796" gradientUnits="userSpaceOnUse">
<stop stop-color="#FFB9B9"/>
<stop offset="1" stop-color="#FF9292"/>
</linearGradient>
</defs>
</svg>
