<svg width="285" height="203" viewBox="0 0 285 203" fill="none" xmlns="http://www.w3.org/2000/svg">
<ellipse cx="143" cy="192.5" rx="77" ry="9.5" fill="#2C3952"/>
<rect x="23" y="76" width="81" height="16" rx="8" fill="#2C3952"/>
<rect width="81" height="16" rx="8" transform="matrix(-1 0 0 1 262 76)" fill="#2C3952"/>
<rect x="40" y="97" width="64" height="16" rx="8" fill="#2C3952"/>
<rect y="97" width="33" height="16" rx="8" fill="#2C3952"/>
<rect width="65" height="16" rx="8" transform="matrix(-1 0 0 1 246 97)" fill="#2C3952"/>
<rect width="33" height="16" rx="8" transform="matrix(-1 0 0 1 285 97)" fill="#2C3952"/>
<rect x="28" y="122" width="76" height="16" rx="8" fill="#2C3952"/>
<rect width="76" height="16" rx="8" transform="matrix(-1 0 0 1 257 122)" fill="#2C3952"/>
<g filter="url(#filter0_i_3870_20409)">
<circle cx="143" cy="93" r="93" fill="url(#paint0_linear_3870_20409)"/>
</g>
<circle cx="143" cy="93" r="91.45" stroke="#5C3232" stroke-width="3.1"/>
<circle cx="86" cy="82" r="8" fill="#5C3232"/>
<circle cx="200" cy="80" r="8" fill="#5C3232"/>
<path d="M120.436 141.907C117.321 140.237 116.106 136.303 118.361 133.581C120.666 130.8 123.436 128.416 126.562 126.545C131.528 123.571 137.208 122.001 142.995 122C148.783 121.999 154.463 123.568 159.43 126.54C162.557 128.411 165.327 130.793 167.633 133.574C169.889 136.295 168.675 140.23 165.56 141.9C162.445 143.571 158.617 142.285 156.02 139.889C155.054 138.998 153.995 138.204 152.858 137.524C149.878 135.741 146.47 134.8 142.997 134.8C139.525 134.8 136.117 135.743 133.137 137.527C132 138.207 130.942 139.001 129.976 139.892C127.379 142.29 123.552 143.576 120.436 141.907Z" fill="#5C3232"/>
<path d="M65.3002 75.7342C64.2121 76.0093 63.0665 75.5904 62.4126 74.6782C61.2708 73.0856 62.1294 70.8443 64.0431 70.4222L70.4466 69.0097C73.2743 68.386 75.7227 66.6307 77.2212 64.1529L80.6146 58.5418C81.6287 56.8649 84.027 56.7713 85.1688 58.3639C85.8227 59.276 85.8517 60.4955 85.2418 61.4376L82.9044 65.0487C79.803 69.84 75.0038 73.2806 69.4705 74.6797L65.3002 75.7342Z" fill="#5C3232"/>
<path d="M200.244 61.4141C199.643 60.466 199.684 59.2469 200.346 58.3412C201.504 56.7597 203.901 56.8766 204.899 58.5632L208.237 64.207C209.712 66.6992 212.143 68.4782 214.965 69.1293L221.354 70.6038C223.264 71.0444 224.1 73.2939 222.943 74.8754C222.281 75.7812 221.131 76.189 220.046 75.9033L215.886 74.8085C210.366 73.3558 205.601 69.8688 202.546 65.0476L200.244 61.4141Z" fill="#5C3232"/>
<circle cx="249" cy="30" r="3" fill="#D9D9D9"/>
<circle cx="249" cy="30" r="3" fill="url(#paint1_linear_3870_20409)"/>
<circle cx="72" cy="192" r="6" fill="#D9D9D9"/>
<circle cx="72" cy="192" r="6" fill="url(#paint2_linear_3870_20409)"/>
<circle cx="41" cy="18" r="8" fill="#D9D9D9"/>
<circle cx="41" cy="18" r="8" fill="url(#paint3_linear_3870_20409)"/>
<circle cx="232" cy="195" r="8" fill="#D9D9D9"/>
<circle cx="232" cy="195" r="8" fill="url(#paint4_linear_3870_20409)"/>
<circle cx="234" cy="141" r="2" fill="url(#paint5_linear_3870_20409)"/>
<circle cx="62" cy="174" r="2" fill="#D9D9D9"/>
<circle cx="62" cy="174" r="2" fill="url(#paint6_linear_3870_20409)"/>
<circle cx="89" cy="184" r="2" fill="#D9D9D9"/>
<circle cx="89" cy="184" r="2" fill="url(#paint7_linear_3870_20409)"/>
<defs>
<filter id="filter0_i_3870_20409" x="50" y="-10" width="186" height="196" filterUnits="userSpaceOnUse" color-interpolation-filters="sRGB">
<feFlood flood-opacity="0" result="BackgroundImageFix"/>
<feBlend mode="normal" in="SourceGraphic" in2="BackgroundImageFix" result="shape"/>
<feColorMatrix in="SourceAlpha" type="matrix" values="0 0 0 0 0 0 0 0 0 0 0 0 0 0 0 0 0 0 127 0" result="hardAlpha"/>
<feOffset dy="-16"/>
<feGaussianBlur stdDeviation="5"/>
<feComposite in2="hardAlpha" operator="arithmetic" k2="-1" k3="1"/>
<feColorMatrix type="matrix" values="0 0 0 0 0.729167 0 0 0 0 0.230903 0 0 0 0 0.230903 0 0 0 0.6 0"/>
<feBlend mode="normal" in2="shape" result="effect1_innerShadow_3870_20409"/>
</filter>
<linearGradient id="paint0_linear_3870_20409" x1="143" y1="4.5" x2="143" y2="176.5" gradientUnits="userSpaceOnUse">
<stop stop-color="#FFB9B9"/>
<stop offset="1" stop-color="#FF9292"/>
</linearGradient>
<linearGradient id="paint1_linear_3870_20409" x1="249" y1="27.1452" x2="249" y2="32.6935" gradientUnits="userSpaceOnUse">
<stop stop-color="#FFB9B9"/>
<stop offset="1" stop-color="#FF9292"/>
</linearGradient>
<linearGradient id="paint2_linear_3870_20409" x1="72" y1="186.29" x2="72" y2="197.387" gradientUnits="userSpaceOnUse">
<stop stop-color="#FFB9B9"/>
<stop offset="1" stop-color="#FF9292"/>
</linearGradient>
<linearGradient id="paint3_linear_3870_20409" x1="41" y1="10.3871" x2="41" y2="25.1828" gradientUnits="userSpaceOnUse">
<stop stop-color="#FFB9B9"/>
<stop offset="1" stop-color="#FF9292"/>
</linearGradient>
<linearGradient id="paint4_linear_3870_20409" x1="232" y1="187.387" x2="232" y2="202.183" gradientUnits="userSpaceOnUse">
<stop stop-color="#FFB9B9"/>
<stop offset="1" stop-color="#FF9292"/>
</linearGradient>
<linearGradient id="paint5_linear_3870_20409" x1="234" y1="139.097" x2="234" y2="142.796" gradientUnits="userSpaceOnUse">
<stop stop-color="#FFB9B9"/>
<stop offset="1" stop-color="#FF9292"/>
</linearGradient>
<linearGradient id="paint6_linear_3870_20409" x1="62" y1="172.097" x2="62" y2="175.796" gradientUnits="userSpaceOnUse">
<stop stop-color="#FFB9B9"/>
<stop offset="1" stop-color="#FF9292"/>
</linearGradient>
<linearGradient id="paint7_linear_3870_20409" x1="89" y1="182.097" x2="89" y2="185.796" gradientUnits="userSpaceOnUse">
<stop stop-color="#FFB9B9"/>
<stop offset="1" stop-color="#FF9292"/>
</linearGradient>
</defs>
</svg>
