<svg width="24" height="25" viewBox="0 0 24 25" fill="none" xmlns="http://www.w3.org/2000/svg">
<path d="M5.89089 8.64579C5.79976 8.64579 4.59233 9.21611 4 9.50127V17.3433C4.10631 17.3243 4.39028 17.3381 4.63789 17.2577C4.91127 17.1689 5.09353 16.9123 5.23022 16.8015C5.45044 16.6018 5.94556 16.1969 6.16427 16.1741C6.43765 16.1456 6.71103 16.2849 6.84772 16.3737C6.94612 16.4376 7.44005 16.7825 7.66787 16.9726L9.03477 18.1132C9.49041 18.4237 10.552 18.963 10.6978 19.0542C10.8294 19.1366 11.2294 19.3204 11.4041 19.3964C11.6319 19.482 12.2151 19.5276 12.452 19.482C12.689 19.4364 13.1583 19.2606 13.3633 19.1113C16.3401 16.944 22.3302 12.5868 22.476 12.4955C22.6218 12.4043 22.7798 12.1913 22.8405 12.0963C22.8937 11.9822 23 11.6913 23 11.4404C23 11.1895 22.9772 10.9809 22.9317 10.8986L22.7722 10.4676L22.5216 10.1287C22.4153 9.99558 22.1571 9.7262 21.9293 9.61536C21.6607 9.48469 21.6103 9.52982 21.3597 9.52982C21.1584 9.52982 21.018 9.59635 20.9724 9.64388L16.4161 13.6076C16.3173 13.6647 16.0835 13.8182 15.9149 13.9213C15.687 14.0607 15.7782 13.9466 15.7782 13.8611V13.5759C15.7782 13.2907 15.8104 13.3177 15.7782 13.0626C15.7098 12.5208 15.6187 12.5778 15.482 12.4352C15.3583 12.3062 15.2086 12.2356 15.0492 12.2071L12.8621 12.2389C12.5356 12.2008 11.8779 12.1305 11.8597 12.1533C11.8415 12.1761 11.5635 12.0678 11.4269 12.0107C11.3585 12.0392 10.8421 11.6305 10.5612 11.4119L9.35372 10.1857C9.02718 9.853 8.37866 9.19332 8.39688 9.21614C8.41966 9.24465 7.82734 8.75988 7.82734 8.73136C7.82734 8.70284 7.48561 8.64579 7.48561 8.58878C7.48561 8.53177 6.66547 8.53172 6.6199 8.50321C6.57434 8.47469 6.0048 8.64579 5.89089 8.64579Z" fill="#32405C" stroke="#32405C" stroke-width="0.0513745"/>
<mask id="path-2-inside-1_3729_2544" fill="white">
<path d="M0 7.5H4V19.5H0V7.5Z"/>
</mask>
<path d="M0 7.5H4V19.5H0V7.5Z" fill="#32405C"/>
<path d="M3.5 7.5V19.5H4.5V7.5H3.5Z" fill="#FFE0B9" mask="url(#path-2-inside-1_3729_2544)"/>
<circle cx="2" cy="17.5" r="1" fill="#FFE0B9"/>
<circle cx="10.5" cy="6" r="1.3" fill="#FFE0B9" stroke="#32405C" stroke-width="0.4"/>
<circle cx="18.5" cy="3" r="1.3" fill="#FFE0B9" stroke="#32405C" stroke-width="0.4"/>
<circle cx="16" cy="8.5" r="1.8" fill="#FFE0B9" stroke="#32405C" stroke-width="0.4"/>
</svg>
