<svg width="24" height="24" viewBox="0 0 24 24" fill="none" xmlns="http://www.w3.org/2000/svg">
<path d="M11.3918 0.778124C10.5855 0.951561 9.84023 1.54688 9.4793 2.29688C9.37617 2.51719 9.26836 2.80781 9.24023 2.94375C9.16992 3.29531 9.16992 20.7047 9.24023 21.0562C9.26836 21.1922 9.37617 21.4828 9.4793 21.7031C9.93398 22.65 10.9512 23.2969 12.0012 23.2969C13.0512 23.2969 14.0684 22.65 14.523 21.7031C14.6262 21.4828 14.734 21.1922 14.7621 21.0562C14.8324 20.7047 14.8324 3.29531 14.7621 2.94375C14.734 2.80781 14.6262 2.51719 14.523 2.29688C14.373 1.98281 14.2559 1.82344 13.9746 1.54219C13.2762 0.84375 12.348 0.571875 11.3918 0.778124Z" fill="#FFE0B9"/>
<path d="M19.0091 6.45924C18.3529 6.65612 17.7716 7.08268 17.4107 7.63112C17.3123 7.77643 17.167 8.07643 17.092 8.29674L16.9466 8.69518L16.9326 14.5546C16.9232 18.3421 16.9373 20.5405 16.9654 20.7749C17.1295 21.9889 17.931 22.903 19.1076 23.203C20.4951 23.5592 21.8826 22.8092 22.4263 21.403L22.5716 21.0233V14.8592V8.69518L22.4685 8.36706C22.2013 7.52331 21.517 6.80143 20.706 6.51549C20.2935 6.37018 19.4076 6.34206 19.0091 6.45924Z" fill="#FFE0B9"/>
<path d="M3.61875 12.0703C3.12656 12.1828 2.64375 12.45 2.26875 12.8203C1.89844 13.1859 1.70156 13.5047 1.5375 13.9922L1.42969 14.3203V17.6484V20.9766L1.55625 21.3516C2.03906 22.7578 3.4875 23.5641 4.89375 23.2031C5.83594 22.9641 6.58125 22.2938 6.89062 21.4031C7.06875 20.9063 7.08281 20.5266 7.06406 17.3906C7.04531 14.0672 7.05937 14.1891 6.74531 13.5563C6.43125 12.9188 5.83125 12.3891 5.14219 12.1547C4.71562 12.0094 4.04531 11.9719 3.61875 12.0703Z" fill="#FFE0B9"/>
</svg>
