<svg width="24" height="24" viewBox="0 0 24 24" fill="none" xmlns="http://www.w3.org/2000/svg">
<path d="M11.5953 1.02665C11.1217 1.14705 11.1562 1.11265 6.09746 6.17811C1.50372 10.7706 1.2454 11.0372 1.12485 11.3038C1.01722 11.5489 1 11.6349 1 11.9961C1 12.3831 1.00861 12.4218 1.1593 12.7314C1.35303 13.1184 1.60274 13.3678 1.98591 13.5441C2.39061 13.7333 2.91585 13.7548 3.31624 13.6043C3.38513 13.5742 3.38943 13.7634 3.38943 17.1131C3.38943 21.052 3.38943 20.9918 3.67358 21.5809C3.89315 22.0238 4.36673 22.4968 4.81018 22.7161C5.42153 23.0128 5.05558 22.9999 12 22.9999C18.9444 22.9999 18.5785 23.0128 19.1898 22.7161C19.6333 22.4968 20.1068 22.0238 20.3264 21.5809C20.6106 20.9918 20.6106 21.052 20.6106 17.1131C20.6106 13.7634 20.6149 13.5742 20.6838 13.6043C21.11 13.7634 21.6223 13.7333 22.0571 13.5183C22.4274 13.3377 22.6771 13.0797 22.8622 12.6884C22.9871 12.4261 23 12.3616 23 11.9918C23 11.6349 22.9828 11.5489 22.8751 11.3038C22.7546 11.0372 22.492 10.7706 17.9025 6.17381C13.326 1.59425 13.0376 1.31475 12.7491 1.17285C12.4951 1.04385 12.3875 1.01805 12.1033 1.00515C11.9139 0.992249 11.69 1.00515 11.5953 1.02665ZM14.5961 13.6645C14.6865 13.7204 14.8113 13.8451 14.8759 13.9397L14.9922 14.116V16.9798V19.8437L14.8759 20.02C14.8113 20.1146 14.6865 20.2393 14.5961 20.2952L14.4325 20.3984H12H9.56751L9.40391 20.2952C9.3135 20.2393 9.18865 20.1146 9.12407 20.02L9.00783 19.8437L8.99491 17.0787C8.9863 15.1953 8.99922 14.2536 9.02935 14.1375C9.08532 13.9311 9.35655 13.6473 9.5546 13.5871C9.6407 13.5613 10.6438 13.5484 12.0646 13.5527L14.4325 13.5613L14.5961 13.6645Z" fill="#FFE0B9"/>
</svg>
