<svg width="24" height="24" viewBox="0 0 24 24" fill="none" xmlns="http://www.w3.org/2000/svg">
<path d="M11.1995 2.06406C8.24642 2.56562 6.37142 5.51875 7.20111 8.37344C7.6933 10.0797 9.03392 11.3828 10.773 11.8469C11.1761 11.9547 11.3167 11.9688 12.0011 11.9688C12.6855 11.9688 12.8261 11.9547 13.2292 11.8469C14.973 11.3828 16.3089 10.0844 16.8011 8.37344C17.6167 5.55625 15.7792 2.60312 12.8917 2.08281C12.5167 2.01719 11.5511 2.00312 11.1995 2.06406Z" fill="#FFE0B9"/>
<path d="M5.64844 5.11124C4.41094 5.43467 3.525 6.30186 3.13594 7.54874C3.04688 7.83936 3.02344 8.00342 3.02344 8.48624C3.02344 9.14717 3.08906 9.45655 3.34219 10.0003C3.76406 10.905 4.63125 11.6269 5.60156 11.8847C6.25781 12.0581 7.09688 12.0159 7.73438 11.7722C8.15156 11.6128 8.15625 11.6362 7.725 11.1956C6.25313 9.69561 5.67656 7.55811 6.19219 5.52374C6.23906 5.32686 6.29531 5.12999 6.30938 5.09249C6.34688 4.98936 6.075 4.99405 5.64844 5.11124Z" fill="#FFE0B9"/>
<path d="M17.6889 5.0823C17.7686 5.28855 17.9092 5.92137 17.9608 6.30574C18.0311 6.83074 17.9889 7.71199 17.867 8.25105C17.6092 9.3948 17.0983 10.3511 16.2826 11.1948C15.8561 11.6354 15.8561 11.612 16.2686 11.7714C17.6373 12.2917 19.2451 11.8698 20.1826 10.7448C20.478 10.3886 20.7686 9.82605 20.8951 9.37605C21.0217 8.90262 21.0123 8.00262 20.867 7.54793C20.4405 6.17449 19.2967 5.18543 17.9608 5.03543C17.6889 5.0073 17.6608 5.01199 17.6889 5.0823Z" fill="#FFE0B9"/>
<path d="M3.95291 13.0359C2.4201 13.2328 1.14041 14.1563 0.470096 15.5344C0.113846 16.2703 0.0435332 16.5984 0.0154082 17.6672C-0.00802933 18.4734 0.00134567 18.6 0.0716582 18.7313C0.113846 18.8109 0.202908 18.9047 0.263846 18.9328C0.334158 18.9656 0.695096 18.9844 1.19197 18.9844H2.00291L2.03103 18.2719C2.06385 17.2594 2.2326 16.5563 2.64978 15.6797C3.11385 14.7141 3.9576 13.7203 4.76853 13.1813C4.86697 13.1156 4.96541 13.0453 4.99353 13.0266C5.0451 12.975 4.35603 12.9797 3.95291 13.0359Z" fill="#FFE0B9"/>
<path d="M7.875 13.0369C5.4375 13.3181 3.43125 15.2447 3.07031 17.6588C3.01875 18.001 3 18.5635 3 19.8666C3 21.7744 3.00469 21.8166 3.26719 21.9338C3.42656 22.0088 20.5734 22.0041 20.7375 21.9338C20.7984 21.9056 20.8875 21.8166 20.9297 21.7322C21 21.601 21.0047 21.3994 20.9859 19.6416C20.9719 18.0572 20.9531 17.6353 20.8875 17.3775C20.6016 16.1775 20.1 15.301 19.2328 14.4853C18.3469 13.651 17.3016 13.1728 16.0594 13.0369C15.5203 12.976 8.4 12.976 7.875 13.0369Z" fill="#FFE0B9"/>
<path d="M18.9898 13.0031C18.9992 13.0125 19.1773 13.1484 19.3835 13.2984C21.0148 14.5078 21.9851 16.4297 21.9851 18.45V18.9844H22.8054C23.307 18.9844 23.6679 18.9656 23.7382 18.9328C23.7992 18.9047 23.8882 18.8109 23.9304 18.7312C24.0523 18.5062 24.0054 16.9734 23.8648 16.4109C23.4054 14.5875 21.8913 13.2703 19.9976 13.0312C19.6273 12.9844 18.9523 12.9656 18.9898 13.0031Z" fill="#FFE0B9"/>
</svg>
